<?xml version="1.0" encoding="UTF-8" standalone="no"?>
<!-- Created with Inkscape (http://www.inkscape.org/) -->

<svg
   version="1.1"
   id="svg2"
   width="360.06668"
   height="260.41333"
   viewBox="0 0 360.06668 260.41333"
   sodipodi:docname="pg_logo_czarne.eps"
   xmlns:inkscape="http://www.inkscape.org/namespaces/inkscape"
   xmlns:sodipodi="http://sodipodi.sourceforge.net/DTD/sodipodi-0.dtd"
   xmlns="http://www.w3.org/2000/svg"
   xmlns:svg="http://www.w3.org/2000/svg">
  <defs
     id="defs6" />
  <sodipodi:namedview
     id="namedview4"
     pagecolor="#ffffff"
     bordercolor="#000000"
     borderopacity="0.25"
     inkscape:showpageshadow="2"
     inkscape:pageopacity="0.0"
     inkscape:pagecheckerboard="0"
     inkscape:deskcolor="#d1d1d1" />
  <g
     id="g8"
     inkscape:groupmode="layer"
     inkscape:label="ink_ext_XXXXXX"
     transform="matrix(1.3333333,0,0,-1.3333333,0,260.41333)">
    <g
       id="g10"
       transform="scale(0.1)">
      <path
         d="m 861.648,98.5 c 0,-8.5586 -1.668,-15.8008 -5.093,-21.7383 -3.403,-5.9804 -7.934,-10.8398 -13.606,-14.7109 -5.664,-3.8399 -12.234,-6.5391 -19.773,-8.3203 -7.485,-1.6797 -15.363,-2.5196 -23.586,-2.5196 H 760.488 V 247.5 h 43.809 c 8.223,0 15.871,-0.82 22.93,-2.52 7.05,-1.73 13.171,-4.511 18.3,-8.359 5.078,-3.781 8.985,-8.73 11.875,-14.641 2.832,-5.98 4.246,-13.07 4.246,-21.289 z m 22.219,173.32 c -9.687,7.711 -21.308,13.379 -34.797,17.11 -13.511,3.691 -28.394,5.511 -44.597,5.511 H 708.457 V 4.23828 h 91.309 c 15.925,0 30.886,1.82031 44.836,5.59375 13.933,3.64847 26.089,9.34767 36.492,17.02737 10.371,7.6719 18.562,17.4414 24.48,29.2812 6.008,11.7891 8.989,25.8203 8.989,42.0313 V 200.609 c 0,16.172 -2.7,30.192 -8.079,41.993 -5.437,11.859 -12.976,21.5 -22.617,29.218 z M 548.855,698.25 H 495.918 V 408.051 h 174.336 v 46.91 H 548.855 Z m 212.395,0 H 708.352 V 408.051 H 761.25 Z M 552.688,122.07 h 55.457 V 59.3203 c -9.637,-5.3906 -18.426,-8.832 -26.297,-10.2305 -7.883,-1.4882 -17.09,-2.1484 -27.66,-2.1484 -8.563,0 -16.551,0.8399 -23.973,2.5899 -7.434,1.6796 -13.945,4.4804 -19.5,8.289 -5.559,3.8203 -10,8.75 -13.266,14.7188 -3.277,5.9804 -4.929,13.2109 -4.929,21.7422 V 204.398 c 0,7.731 1.699,14.551 5.125,20.532 3.441,5.929 7.914,10.929 13.441,14.902 5.523,3.977 12.039,6.93 19.41,8.977 7.426,1.972 15.07,3.011 23.067,3.011 13.07,0 26.183,-2.558 39.281,-7.718 13.086,-5.09 24.871,-11.852 35.418,-20 l 23.855,38.398 c -13.648,12.719 -28.726,22.02 -45.222,27.68 -16.497,5.718 -34.29,8.59 -53.332,8.59 -15.387,0 -29.95,-2.11 -43.758,-6.27 -13.828,-4.141 -25.899,-10.07 -36.27,-17.852 -10.43,-7.867 -18.625,-17.668 -24.734,-29.488 -6.125,-11.738 -9.184,-25.371 -9.184,-40.762 V 94.2813 c 0,-16.2305 2.863,-30.211 8.75,-41.9922 C 454.18,40.4688 462.258,30.7305 472.461,23.0117 482.715,15.3516 494.785,9.60938 508.73,5.78125 522.676,1.87891 537.754,0 553.953,0 c 10.86,0 20.754,0.78125 29.699,2.35156 8.953,1.53907 17.52,3.85938 25.821,7.00782 8.242,3.16012 16.582,6.92972 24.968,11.31252 8.391,4.4101 17.289,9.3281 26.633,14.7383 V 164.73 H 552.688 Z M 1224.27,651.289 V 698.25 H 1061.21 V 408.051 h 171.98 v 46.91 h -119.04 v 80.238 h 92.61 v 44.762 h -92.61 v 71.328 z m 642.54,46.961 h -69.1 V 408.051 h 46.94 v 229.14 l 117.8,-229.14 h 73.42 V 698.25 h -46.98 V 463.07 Z M 400.652,498.051 c 0,-7.969 -1.707,-14.942 -5.132,-20.903 -3.43,-5.988 -7.903,-10.957 -13.457,-14.957 -5.559,-3.961 -12.012,-6.871 -19.387,-8.73 -7.422,-1.84 -15.078,-2.77 -23.067,-2.77 h -6.406 c -8.215,0 -16.094,0.93 -23.469,2.77 -7.39,1.859 -13.933,4.75 -19.656,8.539 -5.676,3.84 -10.265,8.781 -13.664,14.738 -3.394,6 -5.098,13.051 -5.098,21.313 v 110.551 c 0,7.687 1.704,14.41 5.098,20.23 3.399,5.816 8.051,10.816 13.891,14.77 5.84,4.019 12.468,7.007 19.832,8.957 7.375,1.972 14.961,2.992 22.617,2.992 h 6.855 c 7.649,0 15.137,-1.071 22.383,-3.242 7.254,-2.09 13.778,-5.18 19.446,-9.18 5.664,-3.93 10.308,-8.867 13.828,-14.731 3.574,-5.777 5.386,-12.558 5.386,-20.269 z m 52.871,0 v 110.551 c 0,14.777 -3.171,27.929 -9.578,39.488 -6.394,11.5 -14.875,21.308 -25.39,29.41 -10.481,8.148 -22.637,14.32 -36.27,18.602 -13.664,4.257 -27.883,6.41 -42.676,6.41 h -6.855 c -15.078,0 -29.473,-2.09 -43.301,-6.172 -13.801,-4.18 -25.957,-10.281 -36.445,-18.391 -10.598,-8.117 -18.985,-17.929 -25.227,-29.449 -6.289,-11.52 -9.343,-24.809 -9.343,-39.898 V 498.051 c 0,-15.68 3.027,-29.391 9.152,-41.153 6.121,-11.859 14.363,-21.679 24.734,-29.468 10.43,-7.86 22.531,-13.719 36.504,-17.68 13.945,-4 28.684,-6.039 44.375,-6.039 h 6.406 c 15.364,0 29.954,2.039 43.75,6.039 13.829,3.961 25.852,9.941 36.282,17.91 10.371,7.93 18.582,17.789 24.761,29.672 6.067,11.758 9.121,25.406 9.121,40.719 z m 483.735,-90 V 650.84 h 86.602 v 47.41 H 798.516 v -46.961 l 85.808,-0.449 V 408.051 Z M 132.313,587.68 c 0,-9.379 -3.653,-16.09 -10.907,-20.039 -7.258,-3.961 -15.422,-6.02 -24.5427,-6.02 H 52.9414 v 89.668 h 43.9219 c 9.9727,0 18.3637,-2.648 25.1677,-7.988 6.856,-5.192 10.282,-12.832 10.282,-22.789 z m 27.914,90.902 c -7.793,6.52 -17.114,11.469 -27.914,14.77 -10.848,3.199 -22.633,4.898 -35.4497,4.898 H 0 V 408.051 h 52.9414 v 106.66 h 44.7734 c 11.9652,0 23.1832,1.578 33.7502,4.73 10.515,3.059 19.758,7.668 27.683,13.86 7.993,6.078 14.336,13.679 19.043,22.84 4.707,9.097 7.036,19.609 7.036,31.539 v 32.832 c 0,12.847 -2.219,24.097 -6.575,33.75 -4.422,9.648 -10.605,17.769 -18.425,24.32 z m 1937.253,-562.934 37.58,125.883 37.12,-125.883 z m 5.95,180.942 -96.01,-292.35172 h 56.34 l 20.46,68.75002 h 101.16 l 20.07,-68.75002 h 55.49 L 2167.93,296.59 Z m 327.48,401.66 h -69.54 l -83.61,-111.059 h -16.77 V 698.25 h -52.93 V 408.051 h 52.93 v 128.09 h 18.71 l 88.06,-128.09 h 72.16 L 2321.57,565.512 Z M 1991.36,294.441 h -69.57 l -83.61,-111.043 h -16.82 v 111.043 h -52.88 V 4.23828 h 52.88 V 132.391 h 18.75 L 1928.18,4.23828 h 72.1 L 1881.99,161.699 Z m 545.76,225 37.52,125.86 37.12,-125.86 z m 70.39,180.918 h -64.47 L 2447,408.051 h 56.37 l 20.49,68.687 h 101.13 l 20.1,-68.687 h 55.46 z M 1420.03,456.66 c -12.41,-3.98 -25.85,-5.969 -40.35,-5.969 -16.5,0 -30.22,3.809 -41.15,11.309 -11,7.551 -16.44,19.59 -16.44,36.051 v 110.078 c 0,7.711 1.47,14.492 4.48,20.269 2.97,5.864 7.08,10.801 12.36,14.731 5.27,4 11.39,7.09 18.36,9.18 6.97,2.171 14.28,3.242 21.99,3.242 14.51,0 26.95,-2.813 37.35,-8.34 10.34,-5.531 20.12,-12.602 29.24,-21.109 l 29.02,35.859 c -6.85,6.789 -13.43,12.769 -19.89,17.91 -6.41,5.09 -13.21,9.379 -20.46,12.789 -7.25,3.442 -15.36,5.942 -24.32,7.5 -8.95,1.551 -19.32,2.352 -30.94,2.352 -15.13,0 -29.3,-2.153 -42.68,-6.41 -13.41,-4.282 -25.05,-10.454 -34.97,-18.602 -9.97,-8.102 -17.91,-18.02 -23.75,-29.66 -5.8,-11.649 -8.72,-24.852 -8.72,-39.711 V 498.051 c 0,-15.68 2.86,-29.391 8.55,-41.153 5.67,-11.859 13.44,-21.679 23.27,-29.468 9.78,-7.86 21.45,-13.719 35,-17.68 13.48,-4 28.05,-6.039 43.7,-6.039 18.81,0 35.93,2.309 51.45,6.82 15.48,4.571 30.5,13.321 45,26.059 l -23,38.859 c -9.69,-8.551 -20.75,-14.82 -33.1,-18.789 z M 1417.42,59.3203 1295.37,294.441 h -69.12 V 4.23828 h 46.93 V 233.48 L 1390.98,4.23828 h 73.42 V 294.441 h -46.98 z m -392.25,56.3277 37.57,125.883 37.12,-125.883 z m 6,180.942 L 935.105,4.23828 h 56.34 L 1011.9,72.9883 h 101.17 l 20.06,-68.75002 h 55.49 l -93,292.35172 z m 656.09,275.719 H 1568.23 V 698.25 H 1515.3 V 408.051 h 52.93 v 117.301 h 119.03 V 408.051 h 52.94 V 698.25 h -52.94 z M 1358.03,350.551 v -0.063 l -19.05,-70.547 h 30.89 l 40.15,70.61 z m 344.19,-205.469 c -8.11,6.879 -17.97,12.68 -29.67,17.52 -11.65,4.828 -24.91,9.097 -39.65,12.808 -7.14,1.699 -14.39,3.641 -21.82,5.731 -7.37,2.14 -14.02,4.839 -20.06,8.16 -5.95,3.199 -10.82,7.09 -14.68,11.519 -3.85,4.379 -5.78,9.852 -5.78,16.371 0,6.559 1.53,12.008 4.48,16.469 3,4.371 6.91,7.93 11.76,10.68 4.81,2.68 10.4,4.59 16.63,5.719 6.27,1.101 12.64,1.761 19.16,1.761 5.72,0 11.79,-0.922 18.19,-2.558 6.35,-1.762 12.58,-3.961 18.6,-6.66 5.94,-2.692 11.44,-5.602 16.6,-8.75 5.09,-3.122 9.35,-6.27 12.81,-9.391 l 29.44,39.269 c -11.93,9.668 -25.76,17.911 -41.4,24.75 -15.65,6.84 -33.67,10.29 -54.24,10.29 -14.46,0 -28.06,-1.579 -40.7,-4.782 -12.69,-3.066 -23.77,-7.906 -33.33,-14.457 -9.51,-6.562 -17.05,-15 -22.6,-25.429 -5.5,-10.332 -8.33,-22.711 -8.33,-36.911 0,-12.543 1.92,-23.32 5.78,-32.402 3.85,-9.117 9.46,-16.988 16.85,-23.687 7.41,-6.723 16.47,-12.442 27.07,-17.313 10.71,-4.777 22.73,-9.391 36.1,-13.629 7.09,-1.949 14.79,-4.078 23.06,-6.211 8.23,-2.129 15.93,-4.828 23.02,-8.109 7.14,-3.219 13.04,-7.301 17.71,-12.149 4.67,-4.8394 7.06,-11.0308 7.06,-18.3394 0,-7.1016 -1.73,-13.0821 -5.16,-17.9102 -3.37,-4.8828 -7.82,-8.7305 -13.2,-11.5625 -5.39,-2.7695 -11.52,-4.8789 -18.37,-6.1484 -6.8,-1.3321 -13.65,-1.9492 -20.46,-1.9492 -6.57,0 -13.55,1.1289 -20.91,3.4296 -7.43,2.2696 -14.51,5.2383 -21.37,8.9493 -6.8,3.6914 -13.15,7.9296 -19.02,12.5781 -5.8,4.7422 -10.39,9.6133 -13.8,14.7422 l -34.57,-32.8086 c 5.67,-8.5899 12.76,-16.1914 21.09,-22.9102 8.38,-6.6797 17.51,-12.3203 27.28,-16.8008 9.84,-4.5703 20.32,-8.10152 31.44,-10.44137 11.04,-2.44922 22.32,-3.679686 33.72,-3.679686 14.2,0 27.77,1.640626 40.69,4.941406 12.98,3.26953 24.32,8.41795 33.95,15.33985 9.69,6.9883 17.37,15.7773 23.06,26.418 5.7,10.7304 8.51,23.2812 8.51,37.8125 0,13.6367 -2.1,25.3204 -6.35,34.9684 -4.31,9.7 -10.49,17.961 -18.59,24.762 z M 629.336,1785.1 l -56.902,-42.76 24.148,-32.14 46.133,34.71 h 53.613 l 17.063,126.05 -119.953,21.8 -11.368,-65.01 39.563,-6.89 4.422,25.17 42.39,-7.71 -7.195,-53.22 z M 2095.38,408.051 h 52.91 V 698.25 h -52.91 z M 1205.51,1587.47 c -4.03,3.12 -9.02,4.68 -14.85,4.68 h -41.31 v -53.39 h 41.31 c 5.33,0 10.2,1.21 14.46,3.54 4.3,2.35 6.39,6.26 6.39,11.84 v 19.9 c 0,5.84 -1.98,10.34 -6,13.43 z m 132.17,37.41 h 25.16 v -444.34 h -25.16 z m -94.97,-70.74 c 0,-7.08 -1.38,-13.32 -4.1,-18.61 -2.81,-5.39 -6.52,-9.89 -11.23,-13.52 -4.69,-3.57 -10.13,-6.32 -16.37,-8.19 -6.18,-1.82 -12.81,-2.75 -19.84,-2.75 h -41.82 v -62.35 h -31.18 v 171.05 h 72.49 c 7.54,0 14.51,-0.93 20.85,-2.83 6.41,-1.98 11.91,-4.87 16.5,-8.73 4.65,-3.82 8.22,-8.61 10.83,-14.33 2.61,-5.67 3.87,-12.33 3.87,-19.84 z m -4.44,-332.29 c -5.5,-3.17 -10.77,-6.06 -15.7,-8.7 -4.93,-2.58 -9.86,-4.82 -14.74,-6.6 -4.81,-1.87 -9.92,-3.26 -15.18,-4.17 -5.28,-0.9 -11.12,-1.36 -17.52,-1.36 -9.57,0 -18.42,1.11 -26.63,3.35 -8.23,2.29 -15.39,5.69 -21.4,10.17 -6.04,4.57 -10.8,10.32 -14.2,17.26 -3.46,6.97 -5.21,15.27 -5.21,24.77 v 64.92 c 0,9.06 1.81,17.12 5.44,24.03 3.6,6.97 8.44,12.75 14.57,17.34 6.12,4.65 13.26,8.14 21.42,10.6 8.1,2.38 16.72,3.66 25.72,3.66 11.28,0 21.77,-1.71 31.52,-5.02 9.69,-3.4 18.59,-8.81 26.64,-16.35 l -14.05,-22.67 c -6.24,4.87 -13.16,8.78 -20.92,11.81 -7.71,3.04 -15.41,4.54 -23.19,4.54 -4.63,0 -9.18,-0.57 -13.54,-1.75 -4.37,-1.17 -8.16,-2.93 -11.45,-5.28 -3.29,-2.32 -5.94,-5.3 -7.94,-8.84 -1.98,-3.54 -2.99,-7.54 -2.99,-12.07 v -64.92 c 0,-4.94 0.96,-9.3 2.89,-12.84 1.92,-3.54 4.53,-6.38 7.82,-8.64 3.28,-2.27 7.14,-3.95 11.5,-4.91 4.37,-1.05 9.08,-1.53 14.17,-1.53 6.17,0 11.62,0.42 16.26,1.25 4.6,0.85 9.82,2.89 15.54,6.04 V 1273 h -24.82 v 25.14 h 55.99 z m 253.85,393.93 -8.96,-35.25 h 42.93 l -13.51,35.25 23.97,40.04 23.92,-40.04 -13.55,-35.25 h 42.96 l -8.89,35.2 35.88,24.23 -7.6,-59.49 v -36.95 h -145.43 v 37.01 l -7.66,59.45 z m 106.84,-212 -46.11,5.84 6.07,-46.16 h -44.47 l 6.13,45.82 -46.46,-5.5 v 44.18 l 46.46,-6.2 -6.13,46.19 h 44.47 l -6.07,-45.54 46.11,5.55 z m 0,-180 -46.11,5.81 6.07,-46.14 h -44.47 l 6.13,45.77 -46.46,-5.44 v 44.18 l 46.46,-6.21 -6.13,46.25 h 44.47 l -6.07,-45.62 46.11,5.58 z m 108.08,-107.91 v 646.48 H 993.516 V 1115.87 L 1350.26,978.82 Z m -1381.884,211.49 74.922,56.25 v 82.12 l 79.641,59.96 -23.41,31.06 118.504,88.82 139.96,-76.27 v -148.4 l 155.098,-22.53 24.094,70.27 h 60.305 v 332.95 h 791.99 v -372.42 h 60.35 l 25.91,-75.77 153.25,72.15 v 143.75 l 139.96,76.27 118.48,-88.82 -23.4,-31.06 79.66,-59.96 v -82.12 l 74.95,-56.25 v -161.9 h -39.73 v -40.18 h 130.64 l 37.46,-52.97 -92.61,-186.662 h -137.32 l 28.85,58.481 h 57.01 l 62.17,125.371 h -152.4 v 186.53 l -174.56,130.83 38.6,50.7 -31.97,24.34 -58.72,-77.13 v -44.92 l -195.53,-42.81 -60.87,17.87 v 33.61 h -40.18 v -259.63 l -396,-152.07 -395.99,152.07 v 299.2 h -40.129 v -33.73 l -63.086,-18.45 H 657.676 v 48.86 l -58.723,77.13 -31.933,-24.34 38.625,-50.7 -174.622,-130.83 V 1069.5 H 278.621 l 62.238,-125.371 h 56.954 l 28.875,-58.481 H 289.395 l -92.665,186.662 37.458,52.97 h 130.667 v 40.18 h -39.699 z m 429.832,129.05 0.571,-0.8 -0.571,0.03 z m 159.153,88.3 v -35.91 h -48.86 l -22.613,-65.91 -79.824,11.61 120.066,90.21 z m -159.153,47.86 111.711,55.2 26.524,77.48 h 20.918 v -140.44 h -44.61 L 754.988,1498.8 Z m 1031.452,-47.86 h 31.23 l 125.93,-94.62 -87.61,-41.21 -20.7,60.5 h -48.85 z m 0,180.54 h 20.85 l 26.56,-77.48 111.74,-55.2 v -93.77 l -114.55,86.01 h -44.6 z m -1570.163,-251.42 -24.082,32.14 -32.136,-24.09 -22.664,29.81 62.671,46.99 54.7,-71.67 v -30.97 l -73.711,-55.49 v -113.72 l 32.793,-42.93 71.125,53.33 V 1165.46 H 213.391 L 150.09,1075.94 264.453,845.488 H 471.27 l 0.085,40.492 -48.542,98.282 h -57.051 l -22.356,45.058 h 127.805 v 206.62 l 42.394,31.76 162.997,-83.42 v -110.95 l -38.758,-54.81 36.953,-74.391 h 56.902 l 28.906,-58.481 H 623.328 l -70.64,142.232 34.761,49.16 v 88.42 h -76.363 v -40.18 h 36.187 v -35.48 l -41.21,-58.27 92.304,-186.042 h 206.778 l 0.121,40.492 -48.578,98.282 H 699.68 l -15.254,30.608 32.359,45.68 v 148.32 l -167.422,85.61 68.125,51.13 v -49.91 h 239.348 l 57.305,16.77 v -251.21 l 436.119,-167.451 436.18,167.451 v 211.8 l 59.45,-17.46 237.14,51.95 v 38.06 l 68.12,-51.13 -167.39,-85.61 v -148.32 l 32.33,-45.68 -15.24,-30.608 h -56.96 l -48.61,-98.282 0.12,-40.492 h 206.79 l 92.32,186.042 -41.26,58.27 v 35.48 h 36.21 v 40.18 h -76.39 v -88.42 l 34.76,-49.16 -70.58,-142.232 h -137.33 l 28.94,58.481 h 56.92 l 36.95,74.391 -38.81,54.81 v 110.95 l 162.99,83.42 42.4,-31.76 v -206.62 h 127.8 l -22.32,-45.058 h -57.03 l -48.56,-98.282 0.11,-40.492 h 206.75 l 114.38,230.452 -63.31,89.52 h -71.52 v 131.77 l 71.12,-53.33 32.76,42.93 v 113.72 l -73.74,55.49 v 30.97 l 54.7,71.67 62.68,-46.99 -22.67,-29.81 -32.13,24.09 -24.09,-32.14 64.07,-47.97 55.52,72.85 v 32.68 l -111.14,83.29 -87.11,-114.12 v -64.61 l 73.73,-55.46 v -80.06 l -0.35,-0.5 -138.29,103.71 v 82.15 l -82.68,62.23 23.35,31.2 -116.87,87.51 36.16,19.7 103.37,-77.48 -23.23,-31.09 74.82,-56.05 24.02,32.19 -74.58,55.86 23.29,31.09 -88.9,66.59 0.6,0.34 v 45.99 l 110.98,-83.14 -23.3,-31.06 60.36,-45.23 24.09,32.13 -60.08,45.04 23.23,31.11 -135.28,101.37 v 46.75 l 157.99,-118.34 -23.27,-31.08 45.23,-33.9 24.08,32.17 -45,33.66 23.29,31.09 -182.32,136.59 v 52.03 h -40.19 v -43.47 l -63.19,-11.48 7.14,-39.53 56.05,10.12 v -136.96 l -108.13,-58.97 -49.77,37.35 -24.14,-32.14 35.14,-26.33 -64.78,-35.3 -121.69,60.1 -30.42,88.98 h -49.6 v 76.32 H 914.141 v -76.32 h -49.649 l -30.437,-88.98 -121.633,-60.1 -64.777,35.3 35.082,26.33 -24.082,32.14 -49.766,-37.35 -108.195,58.97 v 136.96 l 56.054,-10.12 7.141,39.53 -63.195,11.48 v 43.47 h -40.125 v -52.03 l -182.329,-136.59 23.235,-31.09 -45,-33.66 24.094,-32.17 45.281,33.9 -23.301,31.08 158.02,118.34 v -46.75 l -135.371,-101.37 23.32,-31.11 -60.078,-45.04 24.09,-32.13 60.3,45.23 -23.289,31.06 111.028,83.14 v -45.99 l 0.562,-0.34 -88.926,-66.59 23.293,-31.09 -74.582,-55.86 24.082,-32.19 74.817,56.05 -23.262,31.09 103.352,77.48 36.101,-19.7 -116.758,-87.51 23.289,-31.2 -82.625,-62.23 v -82.15 l -138.347,-103.71 -0.285,0.5 v 80.06 l 73.679,55.46 v 64.61 l -87.058,114.12 -111.1918,-83.29 v -32.68 l 55.5348,-72.85 z m 1841.523,271.08 46.19,-34.71 24.15,32.14 -56.9,42.76 h -31.91 l -7.2,53.22 42.34,7.71 4.42,-25.17 39.56,6.89 -11.33,65.01 -119.96,-21.8 17.03,-126.05 h 53.61"
         style="fill:#231f20;fill-opacity:1;fill-rule:nonzero;stroke:none"
         id="path12" />
    </g>
  </g>
</svg>
