<?xml version="1.0" encoding="UTF-8"?>
<!DOCTYPE svg PUBLIC "-//W3C//DTD SVG 1.1//EN" "http://www.w3.org/Graphics/SVG/1.1/DTD/svg11.dtd">
<svg xmlns="http://www.w3.org/2000/svg" version="1.1" width="1748px" height="1240px" style="shape-rendering:geometricPrecision; text-rendering:geometricPrecision; image-rendering:optimizeQuality; fill-rule:evenodd; clip-rule:evenodd" xmlns:xlink="http://www.w3.org/1999/xlink">
<g><path style="opacity:0.953" fill="#fefffe" d="M 501.5,212.5 C 507.167,212.5 512.833,212.5 518.5,212.5C 518.5,218.5 518.5,224.5 518.5,230.5C 527.622,231.525 536.622,233.191 545.5,235.5C 544.114,241.096 543.114,246.763 542.5,252.5C 534.524,251.038 526.524,249.705 518.5,248.5C 518.167,267.179 518.5,285.845 519.5,304.5C 534.08,312.373 548.58,320.373 563,328.5C 569.589,323.789 576.089,318.955 582.5,314C 583.5,313.333 584.5,313.333 585.5,314C 588.515,318.344 591.515,322.677 594.5,327C 590.713,330.399 586.713,333.565 582.5,336.5C 581.479,337.002 581.312,337.668 582,338.5C 589.966,343.233 598.132,347.566 606.5,351.5C 622.828,343.669 639.162,335.836 655.5,328C 660.353,315.778 665.02,303.445 669.5,291C 676.492,290.5 683.492,290.334 690.5,290.5C 690.5,279.833 690.5,269.167 690.5,258.5C 811.833,258.5 933.167,258.5 1054.5,258.5C 1054.5,269.167 1054.5,279.833 1054.5,290.5C 1061.51,290.334 1068.51,290.5 1075.5,291C 1079.98,303.445 1084.65,315.778 1089.5,328C 1105.84,335.836 1122.17,343.669 1138.5,351.5C 1146.87,347.566 1155.03,343.233 1163,338.5C 1163.69,337.668 1163.52,337.002 1162.5,336.5C 1158.29,333.565 1154.29,330.399 1150.5,327C 1153.49,322.677 1156.49,318.344 1159.5,314C 1160.5,313.333 1161.5,313.333 1162.5,314C 1168.91,318.955 1175.41,323.789 1182,328.5C 1196.42,320.373 1210.92,312.373 1225.5,304.5C 1226.5,285.845 1226.83,267.179 1226.5,248.5C 1218.48,249.705 1210.48,251.038 1202.5,252.5C 1201.89,246.763 1200.89,241.096 1199.5,235.5C 1208.38,233.191 1217.38,231.525 1226.5,230.5C 1226.5,224.5 1226.5,218.5 1226.5,212.5C 1232.17,212.5 1237.83,212.5 1243.5,212.5C 1243.33,219.508 1243.5,226.508 1244,233.5C 1268.69,252.359 1293.53,271.026 1318.5,289.5C 1319.58,290.365 1319.75,291.365 1319,292.5C 1316.5,296.167 1314,299.833 1311.5,303.5C 1317.33,308.493 1323.33,313.326 1329.5,318C 1326.23,323.064 1322.4,327.564 1318,331.5C 1311.84,327.417 1305.84,323.084 1300,318.5C 1297.33,321.833 1294.67,325.167 1292,328.5C 1291.31,329.332 1291.48,329.998 1292.5,330.5C 1300.39,336.27 1308.05,342.27 1315.5,348.5C 1312.58,353.591 1309.08,358.258 1305,362.5C 1296.67,356.167 1288.33,349.833 1280,343.5C 1277.53,347.6 1274.7,351.434 1271.5,355C 1281.83,362.833 1292.17,370.667 1302.5,378.5C 1299.29,383.089 1295.96,387.589 1292.5,392C 1281.58,385.422 1271.08,377.922 1261,369.5C 1257.83,373.333 1254.67,377.167 1251.5,381C 1262.5,389.167 1273.5,397.333 1284.5,405.5C 1285.33,417.152 1285.83,428.819 1286,440.5C 1304.67,454.5 1323.33,468.5 1342,482.5C 1342.83,471.818 1342.67,461.151 1341.5,450.5C 1332.17,443.5 1322.83,436.5 1313.5,429.5C 1313.17,424.5 1312.83,419.5 1312.5,414.5C 1312.38,408.727 1312.88,403.061 1314,397.5C 1325.67,382.5 1337.33,367.5 1349,352.5C 1364.51,363.924 1379.85,375.591 1395,387.5C 1395.67,392.833 1395.67,398.167 1395,403.5C 1387.33,413.336 1379.49,423.003 1371.5,432.5C 1362.36,425.859 1353.36,419.025 1344.5,412C 1347.45,407.382 1350.78,403.048 1354.5,399C 1355.5,398.333 1356.5,398.333 1357.5,399C 1361.02,402.025 1364.69,404.858 1368.5,407.5C 1371.41,404.01 1374.08,400.344 1376.5,396.5C 1368.5,390.006 1360.33,383.673 1352,377.5C 1344.91,387.346 1337.58,397.013 1330,406.5C 1329.17,410.871 1329.34,415.205 1330.5,419.5C 1340.19,427.026 1350.03,434.359 1360,441.5C 1360.67,457.833 1360.67,474.167 1360,490.5C 1355.74,496.679 1351.24,502.679 1346.5,508.5C 1337.09,501.378 1327.59,494.378 1318,487.5C 1317.5,504.83 1317.33,522.163 1317.5,539.5C 1327.52,539.168 1337.52,539.501 1347.5,540.5C 1356.17,552.833 1364.83,565.167 1373.5,577.5C 1357.94,609.623 1342.11,641.623 1326,673.5C 1296.91,674.495 1267.74,674.829 1238.5,674.5C 1238.33,668.158 1238.5,661.825 1239,655.5C 1245.06,642.377 1251.39,629.377 1258,616.5C 1266.09,615.683 1274.25,615.183 1282.5,615C 1285.5,609.333 1288.5,603.667 1291.5,598C 1273.84,597.5 1256.17,597.333 1238.5,597.5C 1238.67,568.831 1238.5,540.165 1238,511.5C 1232.33,507.167 1226.67,502.833 1221,498.5C 1199.07,510.216 1176.9,521.55 1154.5,532.5C 1153.33,547.822 1153.17,563.156 1154,578.5C 1159.5,586.167 1165,593.833 1170.5,601.5C 1165.5,611.5 1160.5,621.5 1155.5,631.5C 1147.17,632.167 1138.83,632.833 1130.5,633.5C 1126.69,640.954 1123.02,648.454 1119.5,656C 1138.18,656.833 1156.84,656.666 1175.5,655.5C 1185.04,636.256 1194.71,617.089 1204.5,598C 1200.37,591.567 1195.87,585.401 1191,579.5C 1190.5,566.171 1190.33,552.837 1190.5,539.5C 1201.17,539.5 1211.83,539.5 1222.5,539.5C 1222.5,545.5 1222.5,551.5 1222.5,557.5C 1217.5,557.5 1212.5,557.5 1207.5,557.5C 1207.33,562.179 1207.5,566.845 1208,571.5C 1213.71,579.755 1219.54,587.921 1225.5,596C 1212.27,621.633 1199.43,647.466 1187,673.5C 1157.91,674.495 1128.74,674.829 1099.5,674.5C 1099.33,667.825 1099.5,661.158 1100,654.5C 1106.33,641.833 1112.67,629.167 1119,616.5C 1127.11,615.847 1135.28,615.181 1143.5,614.5C 1145.37,610.588 1147.37,606.755 1149.5,603C 1144.97,597.431 1140.8,591.597 1137,585.5C 1136.33,564.167 1136.33,542.833 1137,521.5C 1159.42,509.706 1181.92,498.039 1204.5,486.5C 1196.17,479.673 1187.67,473.007 1179,466.5C 1178.81,471.75 1178.31,476.917 1177.5,482C 1144.79,488.975 1112.12,496.142 1079.5,503.5C 1071.19,501.007 1062.86,498.674 1054.5,496.5C 1054.83,525.841 1054.5,555.174 1053.5,584.5C 993.378,608.096 933.045,631.096 872.5,653.5C 811.955,631.096 751.622,608.096 691.5,584.5C 690.667,549.505 690.167,514.505 690,479.5C 683.266,481.894 676.433,484.06 669.5,486C 635.168,486.5 600.835,486.667 566.5,486.5C 566.666,479.825 566.5,473.158 566,466.5C 557.923,472.788 549.756,478.955 541.5,485C 540.289,485.893 540.289,486.726 541.5,487.5C 563.79,498.631 585.957,509.965 608,521.5C 608.667,542.833 608.667,564.167 608,585.5C 604.201,591.597 600.035,597.431 595.5,603C 597.628,606.755 599.628,610.588 601.5,614.5C 609.725,615.181 617.891,615.847 626,616.5C 632.333,629.167 638.667,641.833 645,654.5C 645.5,661.158 645.666,667.825 645.5,674.5C 616.26,674.829 587.093,674.495 558,673.5C 545.497,647.828 532.997,622.162 520.5,596.5C 525.489,587.863 530.989,579.529 537,571.5C 537.499,566.845 537.666,562.179 537.5,557.5C 532.5,557.5 527.5,557.5 522.5,557.5C 522.5,551.5 522.5,545.5 522.5,539.5C 533.167,539.5 543.833,539.5 554.5,539.5C 554.667,552.504 554.5,565.504 554,578.5C 549.5,585 545,591.5 540.5,598C 550.295,617.089 559.961,636.256 569.5,655.5C 588.158,656.666 606.824,656.833 625.5,656C 621.977,648.454 618.311,640.954 614.5,633.5C 606.167,632.833 597.833,632.167 589.5,631.5C 584.5,621.5 579.5,611.5 574.5,601.5C 580,593.833 585.5,586.167 591,578.5C 591.833,563.156 591.666,547.822 590.5,532.5C 568.099,521.55 545.932,510.216 524,498.5C 518.333,502.833 512.667,507.167 507,511.5C 506.5,540.165 506.333,568.831 506.5,597.5C 488.83,597.333 471.164,597.5 453.5,598C 456.5,603.667 459.5,609.333 462.5,615C 470.745,615.183 478.912,615.683 487,616.5C 493.606,629.377 499.939,642.377 506,655.5C 506.5,661.825 506.666,668.158 506.5,674.5C 477.26,674.829 448.093,674.495 419,673.5C 402.895,641.623 387.062,609.623 371.5,577.5C 380.167,565.167 388.833,552.833 397.5,540.5C 407.478,539.501 417.478,539.168 427.5,539.5C 427.667,522.163 427.5,504.83 427,487.5C 417.488,494.257 408.154,501.257 399,508.5C 394.094,503.017 389.428,497.351 385,491.5C 384.333,474.833 384.333,458.167 385,441.5C 394.975,434.359 404.808,427.026 414.5,419.5C 415.661,415.205 415.828,410.871 415,406.5C 407.283,397.117 399.949,387.451 393,377.5C 384.666,383.673 376.5,390.006 368.5,396.5C 370.922,400.344 373.589,404.01 376.5,407.5C 380.309,404.858 383.976,402.025 387.5,399C 388.5,398.333 389.5,398.333 390.5,399C 394.216,403.048 397.55,407.382 400.5,412C 391.642,419.025 382.642,425.859 373.5,432.5C 365.507,423.003 357.674,413.336 350,403.5C 349.333,398.167 349.333,392.833 350,387.5C 365.154,375.591 380.487,363.924 396,352.5C 407.667,367.5 419.333,382.5 431,397.5C 432.617,407.734 432.95,418.067 432,428.5C 422.643,436.025 413.143,443.358 403.5,450.5C 402.334,461.151 402.168,471.818 403,482.5C 421.667,468.5 440.333,454.5 459,440.5C 459.167,428.819 459.667,417.152 460.5,405.5C 471.568,397.638 482.235,389.305 492.5,380.5C 489.858,376.691 487.025,373.024 484,369.5C 473.922,377.922 463.422,385.422 452.5,392C 449.045,387.589 445.711,383.089 442.5,378.5C 452.833,370.667 463.167,362.833 473.5,355C 470.658,351.328 467.658,347.828 464.5,344.5C 456.193,350.307 448.026,356.307 440,362.5C 435.923,358.258 432.423,353.591 429.5,348.5C 436.946,342.27 444.613,336.27 452.5,330.5C 453.521,329.998 453.688,329.332 453,328.5C 450.333,325.167 447.667,321.833 445,318.5C 439.16,323.084 433.16,327.417 427,331.5C 422.599,327.564 418.766,323.064 415.5,318C 421.669,313.326 427.669,308.493 433.5,303.5C 430.702,299.402 428.036,295.235 425.5,291C 450.546,271.721 475.712,252.555 501,233.5C 501.5,226.508 501.666,219.508 501.5,212.5 Z M 500.5,256.5 C 501.817,262.346 501.817,268.346 500.5,274.5C 482.321,287.757 464.321,301.257 446.5,315C 445.833,315.667 445.167,315.667 444.5,315C 442.333,312.167 440.167,309.333 438,306.5C 437.333,305.5 437.333,304.5 438,303.5C 458.991,287.934 479.824,272.268 500.5,256.5 Z M 1243.5,256.5 C 1264.79,271.949 1285.96,287.616 1307,303.5C 1307.67,304.5 1307.67,305.5 1307,306.5C 1304.83,309.333 1302.67,312.167 1300.5,315C 1299.83,315.667 1299.17,315.667 1298.5,315C 1280.68,301.257 1262.68,287.757 1244.5,274.5C 1243.5,268.537 1243.17,262.537 1243.5,256.5 Z M 707.5,276.5 C 817.5,276.5 927.5,276.5 1037.5,276.5C 1037.5,328.167 1037.5,379.833 1037.5,431.5C 1045.86,431.169 1054.19,431.502 1062.5,432.5C 1066.44,442.314 1069.77,452.314 1072.5,462.5C 1094.28,453.108 1115.95,443.441 1137.5,433.5C 1137.17,413.156 1137.5,392.822 1138.5,372.5C 1157.54,361.484 1176.87,351.317 1196.5,342C 1212,353.5 1227.5,365 1243,376.5C 1241.56,381.66 1238.73,386.16 1234.5,390C 1245.58,398.621 1256.74,407.121 1268,415.5C 1268.33,427.167 1268.67,438.833 1269,450.5C 1279.18,457.924 1289.18,465.591 1299,473.5C 1299.5,495.497 1299.67,517.497 1299.5,539.5C 1293.83,539.5 1288.17,539.5 1282.5,539.5C 1282.5,545.5 1282.5,551.5 1282.5,557.5C 1300.84,557.333 1319.17,557.5 1337.5,558C 1342.69,565.029 1347.69,572.195 1352.5,579.5C 1339.69,604.954 1327.02,630.454 1314.5,656C 1295.83,656.667 1277.17,656.667 1258.5,656C 1262.5,648.333 1266.5,640.667 1270.5,633C 1278.52,632.832 1286.52,632.332 1294.5,631.5C 1303.4,614.378 1311.73,597.044 1319.5,579.5C 1298.5,579.5 1277.5,579.5 1256.5,579.5C 1256.83,553.491 1256.5,527.491 1255.5,501.5C 1231.73,484.198 1208.23,466.531 1185,448.5C 1188.72,441.401 1193.39,434.734 1199,428.5C 1199.67,427.833 1199.67,427.167 1199,426.5C 1194.92,422.588 1190.42,419.255 1185.5,416.5C 1177.14,427.024 1168.98,437.691 1161,448.5C 1160.5,454.825 1160.33,461.158 1160.5,467.5C 1133.84,473.165 1107.18,478.832 1080.5,484.5C 1072,482.779 1063.67,480.446 1055.5,477.5C 1054.51,472.88 1054.17,468.214 1054.5,463.5C 1048.83,463.5 1043.17,463.5 1037.5,463.5C 1037.67,499.502 1037.5,535.502 1037,571.5C 982.295,592.791 927.462,613.791 872.5,634.5C 817.538,613.791 762.705,592.791 708,571.5C 707.5,530.168 707.333,488.835 707.5,447.5C 701.833,447.5 696.167,447.5 690.5,447.5C 690.5,452.167 690.5,456.833 690.5,461.5C 682.49,463.558 674.49,465.725 666.5,468C 639.169,468.5 611.835,468.667 584.5,468.5C 584.666,461.825 584.5,455.158 584,448.5C 576.025,437.691 567.858,427.024 559.5,416.5C 554.577,419.255 550.077,422.588 546,426.5C 549.72,433.599 554.386,440.266 560,446.5C 560.667,447.167 560.667,447.833 560,448.5C 536.769,466.531 513.269,484.198 489.5,501.5C 488.5,527.491 488.167,553.491 488.5,579.5C 467.5,579.5 446.5,579.5 425.5,579.5C 433.271,597.044 441.605,614.378 450.5,631.5C 458.479,632.332 466.479,632.832 474.5,633C 478.5,640.667 482.5,648.333 486.5,656C 467.833,656.667 449.167,656.667 430.5,656C 417.977,630.454 405.31,604.954 392.5,579.5C 397.305,572.195 402.305,565.029 407.5,558C 425.83,557.5 444.164,557.333 462.5,557.5C 462.5,551.5 462.5,545.5 462.5,539.5C 456.833,539.5 451.167,539.5 445.5,539.5C 445.333,517.497 445.5,495.497 446,473.5C 455.82,465.591 465.82,457.924 476,450.5C 476.333,438.833 476.667,427.167 477,415.5C 488.257,407.121 499.423,398.621 510.5,390C 506.27,386.16 503.437,381.66 502,376.5C 517.693,364.64 533.526,352.974 549.5,341.5C 568.66,351.579 587.66,361.913 606.5,372.5C 607.5,393.156 607.833,413.823 607.5,434.5C 629.421,438.06 651.421,441.06 673.5,443.5C 676.092,434.056 679.092,424.723 682.5,415.5C 690.807,414.502 699.14,414.169 707.5,414.5C 707.5,368.5 707.5,322.5 707.5,276.5 Z M 500.5,296.5 C 501.653,302.319 501.819,308.319 501,314.5C 488.821,323.257 476.821,332.257 465,341.5C 461.376,337.924 458.709,333.924 457,329.5C 471.838,318.844 486.338,307.844 500.5,296.5 Z M 1243.5,296.5 C 1258.21,307.613 1273.05,318.613 1288,329.5C 1286.29,333.924 1283.62,337.924 1280,341.5C 1268.18,332.257 1256.18,323.257 1244,314.5C 1243.5,308.509 1243.33,302.509 1243.5,296.5 Z M 682.5,307.5 C 685.167,307.5 687.833,307.5 690.5,307.5C 690.5,326.833 690.5,346.167 690.5,365.5C 683.825,365.334 677.158,365.5 670.5,366C 655.064,377.136 639.897,388.636 625,400.5C 624.167,387.82 624.334,375.154 625.5,362.5C 640.623,355.439 655.623,348.105 670.5,340.5C 674.891,329.663 678.891,318.663 682.5,307.5 Z M 1054.5,307.5 C 1057.25,307.187 1059.91,307.52 1062.5,308.5C 1066.31,319.278 1070.31,329.944 1074.5,340.5C 1089.38,348.105 1104.38,355.439 1119.5,362.5C 1120.67,375.154 1120.83,387.82 1120,400.5C 1105.1,388.636 1089.94,377.136 1074.5,366C 1067.84,365.5 1061.17,365.334 1054.5,365.5C 1054.5,346.167 1054.5,326.833 1054.5,307.5 Z M 517.5,324.5 C 522.272,326.72 526.938,329.22 531.5,332C 516.833,343 502.167,354 487.5,365C 486.241,365.982 484.908,366.315 483.5,366C 480.833,362.667 478.167,359.333 475.5,356C 489.747,345.723 503.747,335.223 517.5,324.5 Z M 1225.5,324.5 C 1226.92,324.709 1228.26,325.209 1229.5,326C 1242.83,336 1256.17,346 1269.5,356C 1266.83,359.333 1264.17,362.667 1261.5,366C 1260.09,366.315 1258.76,365.982 1257.5,365C 1242.83,354 1228.17,343 1213.5,332C 1217.73,329.725 1221.73,327.225 1225.5,324.5 Z M 949.5,337.5 C 953.309,342.433 956.642,347.766 959.5,353.5C 957.353,358.291 955.353,363.125 953.5,368C 959.825,368.5 966.158,368.666 972.5,368.5C 972.058,363.564 971.058,358.731 969.5,354C 973.366,350.479 977.533,347.312 982,344.5C 980.841,357.117 980.008,369.784 979.5,382.5C 959.833,382.5 940.167,382.5 920.5,382.5C 920.485,369.734 919.652,357.067 918,344.5C 922,347.167 926,349.833 930,352.5C 929.503,357.839 928.67,363.172 927.5,368.5C 933.868,368.83 940.202,368.496 946.5,367.5C 944.593,362.609 942.593,357.776 940.5,353C 944.155,348.188 947.155,343.021 949.5,337.5 Z M 867.5,349.5 C 870.833,349.5 874.167,349.5 877.5,349.5C 877.5,410.833 877.5,472.167 877.5,533.5C 874.167,533.5 870.833,533.5 867.5,533.5C 867.5,472.167 867.5,410.833 867.5,349.5 Z M 776.5,351.5 C 789.219,351.102 801.886,351.602 814.5,353C 819.935,354.769 823.768,358.269 826,363.5C 828.44,372.112 827.774,380.445 824,388.5C 821.01,391.491 817.51,393.657 813.5,395C 805.173,395.5 796.84,395.666 788.5,395.5C 788.5,404.167 788.5,412.833 788.5,421.5C 784.5,421.5 780.5,421.5 776.5,421.5C 776.5,398.167 776.5,374.833 776.5,351.5 Z M 678.5,382.5 C 682.5,382.5 686.5,382.5 690.5,382.5C 690.5,387.167 690.5,391.833 690.5,396.5C 683.5,396.5 676.5,396.5 669.5,396.5C 666.758,406.059 663.425,415.392 659.5,424.5C 649.72,422.892 640.054,421.058 630.5,419C 646.685,406.97 662.685,394.803 678.5,382.5 Z M 1054.5,382.5 C 1059.3,382.121 1063.96,382.621 1068.5,384C 1085.17,396.667 1101.83,409.333 1118.5,422C 1107.39,427.303 1096.23,432.47 1085,437.5C 1084.23,437.355 1083.56,437.022 1083,436.5C 1080.6,429.129 1078.1,421.796 1075.5,414.5C 1068.53,413.503 1061.53,413.17 1054.5,413.5C 1054.5,403.167 1054.5,392.833 1054.5,382.5 Z M 941.5,406.5 C 947.167,406.5 952.833,406.5 958.5,406.5C 958.021,412.855 957.354,419.188 956.5,425.5C 962.843,424.915 969.176,424.249 975.5,423.5C 975.5,429.167 975.5,434.833 975.5,440.5C 969.196,439.587 962.863,438.92 956.5,438.5C 957.354,444.812 958.021,451.145 958.5,457.5C 952.833,457.5 947.167,457.5 941.5,457.5C 942.217,451.256 943.217,445.09 944.5,439C 937.817,439.001 931.15,439.501 924.5,440.5C 924.5,434.833 924.5,429.167 924.5,423.5C 931.138,424.616 937.804,425.116 944.5,425C 943.217,418.91 942.217,412.744 941.5,406.5 Z M 795.5,452.5 C 805.86,451.731 814.86,454.731 822.5,461.5C 820.914,464.341 819.08,467.007 817,469.5C 808.968,463.536 800.134,462.036 790.5,465C 786.835,466.668 784.668,469.501 784,473.5C 783.088,485.225 783.421,496.892 785,508.5C 787.1,511.467 789.934,513.3 793.5,514C 800.31,515.146 806.81,514.312 813,511.5C 813.499,506.177 813.666,500.844 813.5,495.5C 809.833,495.5 806.167,495.5 802.5,495.5C 802.5,492.167 802.5,488.833 802.5,485.5C 810.167,485.5 817.833,485.5 825.5,485.5C 825.82,496.082 825.487,506.582 824.5,517C 810.287,526.419 795.62,527.419 780.5,520C 775.185,516.205 772.352,511.038 772,504.5C 771.109,492.451 771.443,480.451 773,468.5C 777.615,459.044 785.115,453.711 795.5,452.5 Z M 941.5,481.5 C 947.167,481.5 952.833,481.5 958.5,481.5C 957.915,487.843 957.249,494.176 956.5,500.5C 962.824,499.751 969.157,499.085 975.5,498.5C 975.5,504.167 975.5,509.833 975.5,515.5C 969.218,514.423 962.884,513.757 956.5,513.5C 957.354,519.812 958.021,526.145 958.5,532.5C 952.833,532.5 947.167,532.5 941.5,532.5C 942.217,526.256 943.217,520.09 944.5,514C 937.81,513.946 931.143,514.446 924.5,515.5C 924.5,509.833 924.5,504.167 924.5,498.5C 931.15,499.499 937.817,499.999 944.5,500C 943.217,493.91 942.217,487.744 941.5,481.5 Z"/></g>
<g><path style="opacity:0.944" fill="#fefffe" d="M 556.5,237.5 C 573.466,239.911 590.299,242.911 607,246.5C 605.074,264.153 602.907,281.82 600.5,299.5C 592.826,299.334 585.159,299.5 577.5,300C 571.089,304.955 564.589,309.789 558,314.5C 554.692,309.692 551.192,305.025 547.5,300.5C 554.612,294.437 561.945,288.604 569.5,283C 574.423,281.938 579.423,281.105 584.5,280.5C 585.872,273.897 586.872,267.231 587.5,260.5C 582.084,259.931 576.751,258.931 571.5,257.5C 570.453,261.112 569.62,264.779 569,268.5C 563.281,267.019 557.447,266.019 551.5,265.5C 553.168,256.16 554.834,246.827 556.5,237.5 Z"/></g>
<g><path style="opacity:0.943" fill="#fefffe" d="M 1182.5,237.5 C 1185.08,237.083 1187.25,237.75 1189,239.5C 1190.44,248.191 1191.94,256.858 1193.5,265.5C 1187.55,266.019 1181.72,267.019 1176,268.5C 1175.38,264.779 1174.55,261.112 1173.5,257.5C 1168.25,258.931 1162.92,259.931 1157.5,260.5C 1158.17,267.223 1159.17,273.89 1160.5,280.5C 1165.58,281.105 1170.58,281.938 1175.5,283C 1183.05,288.604 1190.39,294.437 1197.5,300.5C 1193.81,305.025 1190.31,309.692 1187,314.5C 1180.41,309.789 1173.91,304.955 1167.5,300C 1159.84,299.5 1152.17,299.334 1144.5,299.5C 1142.08,281.822 1139.92,264.155 1138,246.5C 1152.94,243.546 1167.77,240.546 1182.5,237.5 Z"/></g>
<g><path style="opacity:0.988" fill="#fefffe" d="M 723.5,291.5 C 822.833,291.5 922.167,291.5 1021.5,291.5C 1021.67,381.501 1021.5,471.501 1021,561.5C 971.629,580.791 922.129,599.791 872.5,618.5C 822.871,599.791 773.371,580.791 724,561.5C 723.5,471.501 723.333,381.501 723.5,291.5 Z M 949.5,337.5 C 947.155,343.021 944.155,348.188 940.5,353C 942.593,357.776 944.593,362.609 946.5,367.5C 940.202,368.496 933.868,368.83 927.5,368.5C 928.67,363.172 929.503,357.839 930,352.5C 926,349.833 922,347.167 918,344.5C 919.652,357.067 920.485,369.734 920.5,382.5C 940.167,382.5 959.833,382.5 979.5,382.5C 980.008,369.784 980.841,357.117 982,344.5C 977.533,347.312 973.366,350.479 969.5,354C 971.058,358.731 972.058,363.564 972.5,368.5C 966.158,368.666 959.825,368.5 953.5,368C 955.353,363.125 957.353,358.291 959.5,353.5C 956.642,347.766 953.309,342.433 949.5,337.5 Z M 867.5,349.5 C 867.5,410.833 867.5,472.167 867.5,533.5C 870.833,533.5 874.167,533.5 877.5,533.5C 877.5,472.167 877.5,410.833 877.5,349.5C 874.167,349.5 870.833,349.5 867.5,349.5 Z M 776.5,351.5 C 776.5,374.833 776.5,398.167 776.5,421.5C 780.5,421.5 784.5,421.5 788.5,421.5C 788.5,412.833 788.5,404.167 788.5,395.5C 796.84,395.666 805.173,395.5 813.5,395C 817.51,393.657 821.01,391.491 824,388.5C 827.774,380.445 828.44,372.112 826,363.5C 823.768,358.269 819.935,354.769 814.5,353C 801.886,351.602 789.219,351.102 776.5,351.5 Z M 941.5,406.5 C 942.217,412.744 943.217,418.91 944.5,425C 937.804,425.116 931.138,424.616 924.5,423.5C 924.5,429.167 924.5,434.833 924.5,440.5C 931.15,439.501 937.817,439.001 944.5,439C 943.217,445.09 942.217,451.256 941.5,457.5C 947.167,457.5 952.833,457.5 958.5,457.5C 958.021,451.145 957.354,444.812 956.5,438.5C 962.863,438.92 969.196,439.587 975.5,440.5C 975.5,434.833 975.5,429.167 975.5,423.5C 969.176,424.249 962.843,424.915 956.5,425.5C 957.354,419.188 958.021,412.855 958.5,406.5C 952.833,406.5 947.167,406.5 941.5,406.5 Z M 795.5,452.5 C 785.115,453.711 777.615,459.044 773,468.5C 771.443,480.451 771.109,492.451 772,504.5C 772.352,511.038 775.185,516.205 780.5,520C 795.62,527.419 810.287,526.419 824.5,517C 825.487,506.582 825.82,496.082 825.5,485.5C 817.833,485.5 810.167,485.5 802.5,485.5C 802.5,488.833 802.5,492.167 802.5,495.5C 806.167,495.5 809.833,495.5 813.5,495.5C 813.666,500.844 813.499,506.177 813,511.5C 806.81,514.312 800.31,515.146 793.5,514C 789.934,513.3 787.1,511.467 785,508.5C 783.421,496.892 783.088,485.225 784,473.5C 784.668,469.501 786.835,466.668 790.5,465C 800.134,462.036 808.968,463.536 817,469.5C 819.08,467.007 820.914,464.341 822.5,461.5C 814.86,454.731 805.86,451.731 795.5,452.5 Z M 941.5,481.5 C 942.217,487.744 943.217,493.91 944.5,500C 937.817,499.999 931.15,499.499 924.5,498.5C 924.5,504.167 924.5,509.833 924.5,515.5C 931.143,514.446 937.81,513.946 944.5,514C 943.217,520.09 942.217,526.256 941.5,532.5C 947.167,532.5 952.833,532.5 958.5,532.5C 958.021,526.145 957.354,519.812 956.5,513.5C 962.884,513.757 969.218,514.423 975.5,515.5C 975.5,509.833 975.5,504.167 975.5,498.5C 969.157,499.085 962.824,499.751 956.5,500.5C 957.249,494.176 957.915,487.843 958.5,481.5C 952.833,481.5 947.167,481.5 941.5,481.5 Z"/></g>
<g><path style="opacity:0.954" fill="#fefffe" d="M 788.5,362.5 C 795.841,362.334 803.174,362.5 810.5,363C 811.931,363.465 813.097,364.299 814,365.5C 815.492,370.411 815.826,375.411 815,380.5C 814.535,381.931 813.701,383.097 812.5,384C 804.585,385.401 796.585,385.901 788.5,385.5C 788.5,377.833 788.5,370.167 788.5,362.5 Z"/></g>
<g><path style="opacity:0.961" fill="#fefffe" d="M 440.5,732.5 C 458.456,730.486 474.456,734.986 488.5,746C 492.831,750.83 495.998,756.33 498,762.5C 499.59,782.129 499.924,801.795 499,821.5C 495.924,841.91 484.091,853.743 463.5,857C 454.5,857.667 445.5,857.667 436.5,857C 418.343,854.538 406.51,844.704 401,827.5C 400.333,805.833 400.333,784.167 401,762.5C 404.646,750.185 412.48,741.685 424.5,737C 429.874,735.16 435.207,733.66 440.5,732.5 Z M 440.5,753.5 C 448.685,752.897 456.685,753.731 464.5,756C 469.333,758.167 472.833,761.667 475,766.5C 476.596,784.122 476.93,801.789 476,819.5C 474.733,828.102 469.9,833.602 461.5,836C 449.719,839.098 438.719,837.431 428.5,831C 426.57,828.742 425.07,826.242 424,823.5C 423.333,804.5 423.333,785.5 424,766.5C 427.76,759.88 433.26,755.547 440.5,753.5 Z"/></g>
<g><path style="opacity:0.955" fill="#fefffe" d="M 876.5,732.5 C 892.531,730.385 906.864,734.218 919.5,744C 921.557,745.719 923.224,747.719 924.5,750C 920.868,755.42 916.868,760.587 912.5,765.5C 900.863,753.674 887.196,750.508 871.5,756C 866.856,758.641 863.689,762.475 862,767.5C 861.333,786.167 861.333,804.833 862,823.5C 863.743,828.91 867.243,832.744 872.5,835C 887.897,839.462 902.063,836.962 915,827.5C 919.007,832.371 922.507,837.705 925.5,843.5C 918.174,851.163 909.174,855.663 898.5,857C 885.936,858.377 873.603,857.377 861.5,854C 849.643,848.814 842.143,839.98 839,827.5C 838.042,804.783 838.376,782.116 840,759.5C 847.202,743.799 859.368,734.799 876.5,732.5 Z"/></g>
<g><path style="opacity:0.955" fill="#fefffe" d="M 1369.5,733.5 C 1378.86,733.168 1388.19,733.502 1397.5,734.5C 1410.78,775.003 1423.45,815.67 1435.5,856.5C 1427.5,856.5 1419.5,856.5 1411.5,856.5C 1409.45,847.004 1406.78,837.671 1403.5,828.5C 1389.85,827.334 1376.18,827.167 1362.5,828C 1359.65,837.381 1356.65,846.714 1353.5,856C 1345.51,856.5 1337.51,856.666 1329.5,856.5C 1342.43,815.367 1355.77,774.367 1369.5,733.5 Z M 1382.5,759.5 C 1387.79,775.294 1392.79,791.294 1397.5,807.5C 1387.86,808.498 1378.19,808.832 1368.5,808.5C 1373.17,792.167 1377.83,775.833 1382.5,759.5 Z"/></g>
<g><path style="opacity:0.967" fill="#fefffe" d="M 309.5,734.5 C 326.17,734.333 342.837,734.5 359.5,735C 372.724,736.85 381.557,744.016 386,756.5C 388.271,768.928 387.938,781.261 385,793.5C 380.556,801.942 373.723,807.442 364.5,810C 353.889,811.375 343.222,811.875 332.5,811.5C 332.5,826.5 332.5,841.5 332.5,856.5C 324.833,856.5 317.167,856.5 309.5,856.5C 309.5,815.833 309.5,775.167 309.5,734.5 Z M 332.5,754.5 C 341.331,753.92 349.998,754.753 358.5,757C 363.464,761.557 365.464,767.223 364.5,774C 366.277,783.874 362.277,789.54 352.5,791C 345.842,791.5 339.175,791.666 332.5,791.5C 332.5,779.167 332.5,766.833 332.5,754.5 Z"/></g>
<g><path style="opacity:0.952" fill="#fefffe" d="M 515.5,734.5 C 523.167,734.5 530.833,734.5 538.5,734.5C 538.5,768.167 538.5,801.833 538.5,835.5C 555.5,835.5 572.5,835.5 589.5,835.5C 589.5,842.5 589.5,849.5 589.5,856.5C 564.833,856.5 540.167,856.5 515.5,856.5C 515.5,815.833 515.5,775.167 515.5,734.5 Z"/></g>
<g><path style="opacity:0.96" fill="#fefffe" d="M 604.5,734.5 C 612.167,734.5 619.833,734.5 627.5,734.5C 627.5,775.167 627.5,815.833 627.5,856.5C 619.833,856.5 612.167,856.5 604.5,856.5C 604.5,815.833 604.5,775.167 604.5,734.5 Z"/></g>
<g><path style="opacity:0.967" fill="#fefffe" d="M 641.5,734.5 C 673.167,734.5 704.833,734.5 736.5,734.5C 736.5,741.5 736.5,748.5 736.5,755.5C 724.5,755.5 712.5,755.5 700.5,755.5C 700.5,789.167 700.5,822.833 700.5,856.5C 692.833,856.5 685.167,856.5 677.5,856.5C 677.5,822.833 677.5,789.167 677.5,755.5C 665.508,754.925 653.508,754.591 641.5,754.5C 641.5,747.833 641.5,741.167 641.5,734.5 Z"/></g>
<g><path style="opacity:0.959" fill="#fefffe" d="M 751.5,734.5 C 774.5,734.5 797.5,734.5 820.5,734.5C 820.5,741.167 820.5,747.833 820.5,754.5C 805.167,754.5 789.833,754.5 774.5,754.5C 774.5,764.167 774.5,773.833 774.5,783.5C 787.5,783.5 800.5,783.5 813.5,783.5C 813.5,790.167 813.5,796.833 813.5,803.5C 800.5,803.5 787.5,803.5 774.5,803.5C 774.5,814.167 774.5,824.833 774.5,835.5C 791.167,835.5 807.833,835.5 824.5,835.5C 824.5,842.5 824.5,849.5 824.5,856.5C 800.167,856.5 775.833,856.5 751.5,856.5C 751.5,815.833 751.5,775.167 751.5,734.5 Z"/></g>
<g><path style="opacity:0.958" fill="#fefffe" d="M 940.5,734.5 C 948.167,734.5 955.833,734.5 963.5,734.5C 963.5,751.833 963.5,769.167 963.5,786.5C 979.833,786.5 996.167,786.5 1012.5,786.5C 1012.5,769.167 1012.5,751.833 1012.5,734.5C 1020.17,734.5 1027.83,734.5 1035.5,734.5C 1035.5,775.167 1035.5,815.833 1035.5,856.5C 1027.83,856.5 1020.17,856.5 1012.5,856.5C 1012.5,840.167 1012.5,823.833 1012.5,807.5C 996.167,807.5 979.833,807.5 963.5,807.5C 963.5,823.833 963.5,840.167 963.5,856.5C 955.833,856.5 948.167,856.5 940.5,856.5C 940.5,815.833 940.5,775.167 940.5,734.5 Z"/></g>
<g><path style="opacity:0.959" fill="#fefffe" d="M 1058.5,734.5 C 1068.75,734.181 1078.92,734.514 1089,735.5C 1105.33,766.833 1121.67,798.167 1138,829.5C 1138.5,797.835 1138.67,766.168 1138.5,734.5C 1145.17,734.5 1151.83,734.5 1158.5,734.5C 1158.5,775.167 1158.5,815.833 1158.5,856.5C 1147.92,856.82 1137.42,856.487 1127,855.5C 1111.33,825.167 1095.67,794.833 1080,764.5C 1079.5,795.165 1079.33,825.832 1079.5,856.5C 1072.5,856.5 1065.5,856.5 1058.5,856.5C 1058.5,815.833 1058.5,775.167 1058.5,734.5 Z"/></g>
<g><path style="opacity:0.96" fill="#fefffe" d="M 1182.5,734.5 C 1190.17,734.5 1197.83,734.5 1205.5,734.5C 1205.5,775.167 1205.5,815.833 1205.5,856.5C 1197.83,856.5 1190.17,856.5 1182.5,856.5C 1182.5,815.833 1182.5,775.167 1182.5,734.5 Z"/></g>
<g><path style="opacity:0.955" fill="#fefffe" d="M 1229.5,734.5 C 1237.17,734.5 1244.83,734.5 1252.5,734.5C 1252.5,749.833 1252.5,765.167 1252.5,780.5C 1254.92,780.808 1257.26,780.474 1259.5,779.5C 1270.64,764.524 1281.97,749.691 1293.5,735C 1303.52,734.168 1313.52,734.334 1323.5,735.5C 1308.31,753.521 1293.31,771.688 1278.5,790C 1294.96,811.744 1311.29,833.577 1327.5,855.5C 1317.18,856.666 1306.85,856.832 1296.5,856C 1284.17,838.333 1271.83,820.667 1259.5,803C 1257.19,802.503 1254.86,802.337 1252.5,802.5C 1252.5,820.5 1252.5,838.5 1252.5,856.5C 1244.83,856.5 1237.17,856.5 1229.5,856.5C 1229.5,815.833 1229.5,775.167 1229.5,734.5 Z"/></g>
<g><path style="opacity:0.932" fill="#fefffe" d="M 874.5,879.5 C 882.196,879.169 889.862,879.503 897.5,880.5C 892.04,889.919 886.707,899.419 881.5,909C 876.845,909.499 872.179,909.666 867.5,909.5C 869.833,899.5 872.167,889.5 874.5,879.5 Z"/></g>
<g><path style="opacity:0.959" fill="#fefffe" d="M 532.5,900.5 C 546.999,899.471 560.666,902.304 573.5,909C 576.672,911.006 579.338,913.506 581.5,916.5C 578.668,922.168 575.335,927.501 571.5,932.5C 564.331,927.915 556.664,924.415 548.5,922C 537.887,919.742 528.387,921.909 520,928.5C 518.414,930.67 517.08,933.004 516,935.5C 515.333,954.167 515.333,972.833 516,991.5C 521.113,1001.98 529.613,1006.65 541.5,1005.5C 548.831,1005.7 555.665,1004.03 562,1000.5C 562.5,992.173 562.666,983.84 562.5,975.5C 554.833,975.5 547.167,975.5 539.5,975.5C 539.5,969.167 539.5,962.833 539.5,956.5C 554.833,956.5 570.167,956.5 585.5,956.5C 585.826,975.076 585.493,993.576 584.5,1012C 562.328,1026.51 538.661,1029.51 513.5,1021C 502.581,1015.75 495.747,1007.25 493,995.5C 492.043,973.116 492.376,950.783 494,928.5C 497.741,917.092 505.241,909.259 516.5,905C 521.874,903.16 527.207,901.66 532.5,900.5 Z"/></g>
<g><path style="opacity:0.954" fill="#fefffe" d="M 977.5,900.5 C 995.938,898.87 1012.27,903.87 1026.5,915.5C 1022.52,921.475 1018.19,927.142 1013.5,932.5C 1003.29,924.042 991.627,920.542 978.5,922C 970.936,923.231 966.269,927.565 964.5,935C 965.131,938.597 966.798,941.597 969.5,944C 972.608,946.106 975.941,947.772 979.5,949C 993.864,951.452 1007.2,956.452 1019.5,964C 1029.31,974.328 1032.48,986.495 1029,1000.5C 1024.16,1013.34 1014.99,1021.17 1001.5,1024C 982.079,1028.12 964.079,1024.78 947.5,1014C 943.607,1010.61 940.273,1006.78 937.5,1002.5C 942.474,997.861 947.474,993.195 952.5,988.5C 966.414,1004.87 983.081,1008.7 1002.5,1000C 1008.96,993.631 1008.96,987.298 1002.5,981C 999.446,978.806 996.112,977.139 992.5,976C 979.988,973.052 967.988,968.719 956.5,963C 942.415,952.297 938.249,938.464 944,921.5C 947.96,912.876 954.46,907.042 963.5,904C 968.295,902.801 972.962,901.634 977.5,900.5 Z"/></g>
<g><path style="opacity:0.954" fill="#fefffe" d="M 738.5,901.5 C 748.083,901.182 757.583,901.515 767,902.5C 780.344,943.032 793.178,983.699 805.5,1024.5C 797.472,1024.83 789.472,1024.5 781.5,1023.5C 778.519,1014.24 775.853,1004.91 773.5,995.5C 759.5,995.5 745.5,995.5 731.5,995.5C 729.147,1004.91 726.481,1014.24 723.5,1023.5C 715.167,1024.83 706.833,1024.83 698.5,1023.5C 712.442,983.007 725.775,942.341 738.5,901.5 Z M 752.5,928.5 C 757.406,944.267 762.406,960.1 767.5,976C 757.839,976.5 748.172,976.666 738.5,976.5C 742.562,960.314 747.229,944.314 752.5,928.5 Z"/></g>
<g><path style="opacity:0.954" fill="#fefffe" d="M 1185.5,901.5 C 1195.17,901.5 1204.83,901.5 1214.5,901.5C 1227.17,942.5 1239.83,983.5 1252.5,1024.5C 1244.47,1024.83 1236.47,1024.5 1228.5,1023.5C 1225.52,1014.24 1222.85,1004.91 1220.5,995.5C 1206.5,995.5 1192.5,995.5 1178.5,995.5C 1176.45,1004.99 1173.78,1014.32 1170.5,1023.5C 1162.19,1024.67 1153.85,1024.83 1145.5,1024C 1159.33,983.331 1172.67,942.498 1185.5,901.5 Z M 1199.5,928.5 C 1204.72,944.173 1209.72,960.006 1214.5,976C 1204.84,976.5 1195.17,976.666 1185.5,976.5C 1189.56,960.308 1194.23,944.308 1199.5,928.5 Z"/></g>
<g><path style="opacity:0.961" fill="#fefffe" d="M 604.5,902.5 C 621.503,902.333 638.503,902.5 655.5,903C 672.707,904.509 684.207,913.342 690,929.5C 691.094,940.626 691.594,951.793 691.5,963C 691.594,974.207 691.094,985.374 690,996.5C 684.585,1011.91 673.751,1020.74 657.5,1023C 639.868,1024.38 622.201,1024.88 604.5,1024.5C 604.5,983.833 604.5,943.167 604.5,902.5 Z M 627.5,922.5 C 636.208,922.299 644.875,922.799 653.5,924C 661.667,925.5 666.5,930.333 668,938.5C 668.667,954.833 668.667,971.167 668,987.5C 665.832,996.686 659.999,1001.85 650.5,1003C 642.841,1003.5 635.174,1003.67 627.5,1003.5C 627.5,976.5 627.5,949.5 627.5,922.5 Z"/></g>
<g><path style="opacity:0.961" fill="#fefffe" d="M 820.5,902.5 C 830.522,902.168 840.522,902.501 850.5,903.5C 866.667,934.5 882.833,965.5 899,996.5C 899.5,965.168 899.667,933.835 899.5,902.5C 906.5,902.5 913.5,902.5 920.5,902.5C 920.5,943.167 920.5,983.833 920.5,1024.5C 909.813,1024.83 899.146,1024.5 888.5,1023.5C 872.922,992.677 857.089,962.01 841,931.5C 840.5,962.498 840.333,993.498 840.5,1024.5C 833.833,1024.5 827.167,1024.5 820.5,1024.5C 820.5,983.833 820.5,943.167 820.5,902.5 Z"/></g>
<g><path style="opacity:0.956" fill="#fefffe" d="M 1046.5,902.5 C 1054.17,902.5 1061.83,902.5 1069.5,902.5C 1069.5,917.833 1069.5,933.167 1069.5,948.5C 1072.97,949.125 1075.8,948.125 1078,945.5C 1088.69,931.641 1099.19,917.641 1109.5,903.5C 1119.82,902.334 1130.15,902.168 1140.5,903C 1125.31,921.355 1110.31,939.855 1095.5,958.5C 1111.71,980.423 1128.04,1002.26 1144.5,1024C 1133.82,1024.83 1123.15,1024.67 1112.5,1023.5C 1100.42,1006.34 1088.59,989.007 1077,971.5C 1074.62,970.565 1072.12,970.232 1069.5,970.5C 1069.5,988.5 1069.5,1006.5 1069.5,1024.5C 1061.83,1024.5 1054.17,1024.5 1046.5,1024.5C 1046.5,983.833 1046.5,943.167 1046.5,902.5 Z"/></g>
</svg>
